<mxfile host="app.diagrams.net" modified="2024-01-31T20:43:47.007Z" agent="Mozilla/5.0 (Windows NT 10.0; Win64; x64; rv:121.0) Gecko/20100101 Firefox/121.0" version="23.1.0" etag="lJxd7Px3Hv6-3crgBbBA" type="github">
  <diagram name="Page-1" id="sIQ3Cuc5agyqr33T1YzC">
    <mxGraphModel>
      <root>
        <mxCell id="0" />
        <mxCell id="1" parent="0" />
      </root>
    </mxGraphModel>
  </diagram>
</mxfile>
